<svg width="210" height="96" viewBox="0 0 210 96" fill="none" xmlns="http://www.w3.org/2000/svg">
<path d="M187.13 80.5479L179.726 73.133L172.297 80.5479L179.726 96L187.13 80.5479Z" fill="#ED5338"/>
<path d="M179.728 30.6141C176.87 30.6141 174.584 32.9216 174.584 35.7475C174.584 38.5994 176.896 40.881 179.728 40.881C182.585 40.881 184.871 38.5735 184.871 35.7475C184.871 32.9216 182.559 30.6141 179.728 30.6141Z" fill="#C59368"/>
<path d="M179.726 7.53992C178.167 8.34363 157.646 19.1549 157.646 36.4478C157.646 51.2517 169.725 73.678 169.725 73.678L179.726 63.6704L189.727 73.678C189.727 73.678 201.806 51.2517 201.806 36.4478C201.806 19.1549 181.285 8.34363 179.726 7.53992ZM186.324 56.9037L179.726 50.2925L173.128 56.9037C172.79 55.9963 168.374 44.0183 168.374 36.2145C168.374 25.6884 178.947 19.7772 179.752 19.3623C180.557 19.8031 191.13 25.6884 191.13 36.2145C191.104 44.0183 186.662 55.9963 186.324 56.9037Z" fill="#C59368"/>
<path d="M209.365 7.53466L201.816 0L194.267 7.53466L201.816 15.0693L209.365 7.53466Z" fill="#C59368"/>
<path d="M21.4823 42.0066C20.3653 42.3436 18.4431 42.8103 16.5468 43.1992C14.8064 43.5622 12.4945 43.8992 10.1826 44.7288C6.49403 46.0252 4.59777 49.8104 4.26008 54.5549C4.23411 54.866 4.10423 55.1772 4.0263 55.4883H4.23411C5.6628 52.403 9.55922 50.3289 13.2998 50.3289C19.8198 50.3289 24.1058 54.6586 24.1058 61.3476C24.1058 67.1292 19.612 72.8848 12.2348 72.8848C4.18216 72.9108 0 66.2736 0 57.8994C0 48.5659 2.59761 43.614 8.49419 41.151C10.2346 40.4251 11.7152 40.1917 13.066 39.9066C16.287 39.2584 18.1833 38.8436 20.2354 38.2732L21.4823 42.0066ZM12.2348 69.1774C16.4169 69.1774 19.638 65.9625 19.638 61.555C19.638 56.8105 16.7806 54.0364 12.3127 54.0364C9.2475 54.0364 5.61084 56.4735 4.44192 59.4809C4.46789 64.6403 7.29929 69.1774 12.2348 69.1774Z" fill="#562212"/>
<path d="M31.119 72.1595H27.1706V50.1221H31.5865C31.5865 50.1221 31.5865 64.0186 31.5865 64.5371C31.5865 65.0557 31.4826 65.5742 31.3787 65.9112C31.5086 65.9112 31.5865 65.9112 31.5865 65.9112L44.2109 50.1221H48.1593V72.1595H43.7434C43.7434 72.1595 43.7434 58.3148 43.7434 57.7444C43.7434 57.2259 43.8473 56.6555 43.9512 56.3185C43.8473 56.3185 43.7434 56.3185 43.7434 56.3185L31.119 72.1595Z" fill="#562212"/>
<path d="M51.0704 69.9036L52.8108 66.7406C54.5772 68.1665 57.3047 69.1517 59.6166 69.1517C62.9155 69.1517 65.0975 67.6739 65.0975 65.5221C65.0975 63.7072 63.7468 62.7739 61.0453 62.7739H57.3047V59.3516H60.7855C62.9935 59.3516 64.3702 58.1071 64.3702 56.3441C64.3702 54.3737 62.8116 53.1811 59.9023 53.1811C57.8242 53.1811 55.3045 53.9589 53.3044 55.5145L51.564 52.3774C54.2135 50.3551 57.4346 49.4996 60.4738 49.4996C65.7729 49.4996 68.7861 51.8589 68.7861 55.5404C68.7861 58.0812 67.5133 59.8183 64.8897 60.7516V60.8553C67.851 61.1924 69.4875 63.3702 69.4875 66.0665C69.4875 70.1369 65.4352 72.9111 60.1101 72.9111C56.2916 72.9111 52.9927 71.6407 51.0704 69.9036Z" fill="#562212"/>
<path d="M88.8389 72.1587V62.5919H76.9938V72.1587H72.5779V50.1213H76.9938V59.1437H88.8389V50.0954H93.2549V72.1328H88.8389V72.1587Z" fill="#562212"/>
<path d="M117.774 62.6961C117.826 62.2553 117.852 61.7887 117.852 61.322C117.852 54.6071 114.605 49.4996 107.072 49.4996C100.578 49.4996 96.344 54.6071 96.344 61.322C96.344 67.9591 100.604 72.9111 108.345 72.9111C112.086 72.9111 115.255 71.7703 117.541 69.9036L115.8 66.7406C114.112 68.011 111.514 69.2036 108.475 69.2036C103.643 69.2036 101.305 66.585 100.89 62.722H100.916H117.774V62.6961ZM107.28 53.207C111.254 53.207 113.203 55.8775 113.54 59.2738H100.916C101.487 55.8515 104.007 53.207 107.28 53.207Z" fill="#562212"/>
<path d="M27.9689 81.69H25.5039C25.4699 82.166 25.4359 82.6817 25.4019 83.237C25.3679 83.781 25.3169 84.3307 25.2489 84.886C25.1809 85.43 25.0902 85.957 24.9769 86.467C24.8636 86.9657 24.7162 87.4077 24.5349 87.793C24.3649 88.1783 24.1496 88.49 23.8889 88.728C23.6396 88.9547 23.3392 89.068 22.9879 89.068C22.7726 89.068 22.5856 89.0567 22.4269 89.034C22.2682 89.0113 22.1266 88.9717 22.0019 88.915L22.2059 87.776C22.3419 87.8213 22.4892 87.844 22.6479 87.844C22.8746 87.844 23.0786 87.7477 23.2599 87.555C23.4412 87.3623 23.5999 86.9997 23.7359 86.467C23.8719 85.923 23.9852 85.175 24.0759 84.223C24.1666 83.271 24.2289 82.03 24.2629 80.5H29.3289V89H27.9689V81.69ZM37.2497 83.968L37.3007 82.914H37.2497L36.5527 84.002L32.7277 89H31.9457V80.5H33.3057V85.685L33.2547 86.688H33.3227L33.9857 85.634L37.8107 80.5H38.6097V89H37.2497V83.968ZM42.11 80.5V82.812C42.11 83.118 42.127 83.3957 42.161 83.645C42.195 83.883 42.263 84.0927 42.365 84.274C42.467 84.444 42.6143 84.58 42.807 84.682C42.9997 84.7727 43.2547 84.818 43.572 84.818C44.082 84.818 44.5013 84.7613 44.83 84.648C45.1587 84.5347 45.408 84.41 45.578 84.274V80.5H46.938V89H45.578V85.43C45.3967 85.5433 45.1247 85.668 44.762 85.804C44.4107 85.94 43.9233 86.008 43.3 86.008C42.8807 86.008 42.5123 85.9627 42.195 85.872C41.8777 85.7813 41.6113 85.6227 41.396 85.396C41.1807 85.1693 41.0163 84.869 40.903 84.495C40.801 84.121 40.75 83.6507 40.75 83.084V80.5H42.11ZM54.762 85.243H50.92V89H49.56V80.5H50.92V84.053H54.762V80.5H56.122V89H54.762V85.243ZM60.1006 87.81C60.52 87.878 60.9223 87.912 61.3076 87.912C62.0216 87.912 62.5203 87.776 62.8036 87.504C63.087 87.2207 63.2286 86.824 63.2286 86.314C63.2286 85.8607 63.087 85.4867 62.8036 85.192C62.5316 84.8973 62.05 84.75 61.3586 84.75C61.166 84.75 60.9563 84.7557 60.7296 84.767C60.503 84.7783 60.2933 84.8123 60.1006 84.869V87.81ZM60.1006 83.747C60.3726 83.7017 60.6333 83.6733 60.8826 83.662C61.132 83.6393 61.37 83.628 61.5966 83.628C62.1746 83.628 62.6563 83.696 63.0416 83.832C63.4383 83.9567 63.7556 84.1323 63.9936 84.359C64.2316 84.5857 64.396 84.8577 64.4866 85.175C64.5886 85.481 64.6396 85.8097 64.6396 86.161C64.6396 87.1923 64.3506 87.9403 63.7726 88.405C63.206 88.8697 62.2823 89.102 61.0016 89.102C60.2763 89.102 59.5226 89.068 58.7406 89V80.5H60.1006V83.747ZM65.9826 80.5H67.3426V89H65.9826V80.5ZM75.2673 83.968L75.3183 82.914H75.2673L74.5703 84.002L70.7453 89H69.9633V80.5H71.3233V85.685L71.2723 86.688H71.3403L72.0033 85.634L75.8283 80.5H76.6273V89H75.2673V83.968ZM71.9183 77.066C72.0316 77.5873 72.2243 77.95 72.4963 78.154C72.7796 78.358 73.1026 78.46 73.4653 78.46C73.828 78.46 74.151 78.3523 74.4343 78.137C74.7176 77.9217 74.9103 77.5703 75.0123 77.083L76.0323 77.406C75.9303 78.0633 75.6356 78.5677 75.1483 78.919C74.6723 79.2703 74.1 79.446 73.4313 79.446C73.1253 79.446 72.8193 79.4063 72.5133 79.327C72.2186 79.2477 71.9523 79.1287 71.7143 78.97C71.4763 78.8113 71.2723 78.6073 71.1023 78.358C70.9323 78.1087 70.819 77.814 70.7623 77.474L71.9183 77.066ZM85.9178 85.175H85.1358V89H83.7758V80.5H85.1358V84.342L85.8668 84.104L88.5868 80.5H90.0658L87.4308 83.917L86.7168 84.478L87.6008 85.158L90.4398 89H88.7568L85.9178 85.175ZM91.758 81.129C92.1886 80.8683 92.6873 80.6757 93.254 80.551C93.832 80.4263 94.4326 80.364 95.056 80.364C95.6453 80.364 96.1156 80.4433 96.467 80.602C96.8296 80.7607 97.1016 80.9703 97.283 81.231C97.4756 81.4803 97.6003 81.758 97.657 82.064C97.725 82.37 97.759 82.676 97.759 82.982C97.759 83.662 97.742 84.325 97.708 84.971C97.674 85.617 97.657 86.229 97.657 86.807C97.657 87.2263 97.674 87.623 97.708 87.997C97.742 88.371 97.8043 88.7167 97.895 89.034H96.892L96.535 87.844H96.45C96.348 88.0027 96.2176 88.1613 96.059 88.32C95.9116 88.4673 95.7303 88.6033 95.515 88.728C95.2996 88.8413 95.0503 88.9377 94.767 89.017C94.4836 89.0963 94.1606 89.136 93.798 89.136C93.4353 89.136 93.0953 89.0793 92.778 88.966C92.472 88.8527 92.2056 88.694 91.979 88.49C91.7523 88.2747 91.571 88.0197 91.435 87.725C91.3103 87.4303 91.248 87.096 91.248 86.722C91.248 86.2233 91.35 85.8097 91.554 85.481C91.758 85.141 92.0413 84.8747 92.404 84.682C92.778 84.478 93.22 84.3363 93.73 84.257C94.2513 84.1663 94.8236 84.121 95.447 84.121C95.6056 84.121 95.7586 84.121 95.906 84.121C96.0646 84.121 96.2233 84.1323 96.382 84.155C96.416 83.815 96.433 83.509 96.433 83.237C96.433 82.6137 96.3083 82.1773 96.059 81.928C95.8096 81.6787 95.3563 81.554 94.699 81.554C94.5063 81.554 94.2966 81.571 94.07 81.605C93.8546 81.6277 93.628 81.6673 93.39 81.724C93.1633 81.7693 92.9423 81.8317 92.727 81.911C92.523 81.979 92.3416 82.0583 92.183 82.149L91.758 81.129ZM94.172 87.946C94.4893 87.946 94.7726 87.9063 95.022 87.827C95.2713 87.7363 95.4866 87.6287 95.668 87.504C95.8493 87.368 95.9966 87.2207 96.11 87.062C96.2346 86.9033 96.3253 86.7503 96.382 86.603V85.192C96.2233 85.1807 96.059 85.175 95.889 85.175C95.7303 85.1637 95.5716 85.158 95.413 85.158C95.0616 85.158 94.716 85.1807 94.376 85.226C94.0473 85.26 93.7526 85.3337 93.492 85.447C93.2426 85.549 93.0386 85.6963 92.88 85.889C92.7326 86.0703 92.659 86.3027 92.659 86.586C92.659 86.9827 92.8006 87.3113 93.084 87.572C93.3673 87.8213 93.73 87.946 94.172 87.946ZM101.11 82.013C101.484 81.469 101.897 81.0893 102.351 80.874C102.804 80.6473 103.371 80.534 104.051 80.534C105.093 80.534 105.892 80.874 106.448 81.554C107.014 82.234 107.298 83.237 107.298 84.563C107.298 86.093 106.969 87.249 106.312 88.031C105.666 88.813 104.759 89.204 103.592 89.204C102.345 89.204 101.41 88.7733 100.787 87.912C100.163 87.0507 99.8516 85.6963 99.8516 83.849C99.8516 82.8743 99.8969 82.0413 99.9876 81.35C100.09 80.6587 100.231 80.075 100.413 79.599C100.605 79.123 100.832 78.7433 101.093 78.46C101.365 78.1767 101.665 77.9557 101.994 77.797C102.334 77.627 102.702 77.508 103.099 77.44C103.495 77.372 103.92 77.3153 104.374 77.27C104.963 77.2133 105.422 77.151 105.751 77.083C106.091 77.0037 106.363 76.8677 106.567 76.675L106.72 77.899C106.606 78.001 106.482 78.086 106.346 78.154C106.21 78.222 106.045 78.2787 105.853 78.324C105.66 78.3693 105.428 78.409 105.156 78.443C104.895 78.477 104.589 78.5053 104.238 78.528C103.75 78.562 103.32 78.6243 102.946 78.715C102.583 78.7943 102.266 78.9587 101.994 79.208C101.733 79.446 101.523 79.7917 101.365 80.245C101.217 80.687 101.115 81.2763 101.059 82.013H101.11ZM101.263 84.767C101.263 85.1977 101.308 85.6113 101.399 86.008C101.489 86.4047 101.625 86.756 101.807 87.062C101.999 87.3567 102.243 87.589 102.538 87.759C102.832 87.929 103.178 88.014 103.575 88.014C104.357 88.014 104.935 87.7363 105.309 87.181C105.694 86.6143 105.887 85.7813 105.887 84.682C105.887 84.2513 105.847 83.8547 105.768 83.492C105.688 83.1293 105.564 82.8177 105.394 82.557C105.224 82.285 105.008 82.081 104.748 81.945C104.487 81.7977 104.175 81.724 103.813 81.724C102.929 81.7127 102.283 81.9733 101.875 82.506C101.467 83.0273 101.263 83.781 101.263 84.767ZM114.746 83.968L114.797 82.914H114.746L114.049 84.002L110.224 89H109.442V80.5H110.802V85.685L110.751 86.688H110.819L111.482 85.634L115.307 80.5H116.106V89H114.746V83.968ZM123.924 85.243H120.082V89H118.722V80.5H120.082V84.053H123.924V80.5H125.284V89H123.924V85.243ZM134.108 88.32C133.768 88.592 133.337 88.8073 132.816 88.966C132.306 89.1247 131.762 89.204 131.184 89.204C130.538 89.204 129.977 89.102 129.501 88.898C129.025 88.6827 128.634 88.3823 128.328 87.997C128.022 87.6003 127.795 87.13 127.648 86.586C127.5 86.042 127.427 85.43 127.427 84.75C127.427 83.2993 127.75 82.1943 128.396 81.435C129.042 80.6757 129.965 80.296 131.167 80.296C131.552 80.296 131.937 80.3413 132.323 80.432C132.708 80.5113 133.054 80.67 133.36 80.908C133.666 81.146 133.915 81.486 134.108 81.928C134.3 82.3587 134.397 82.931 134.397 83.645C134.397 84.019 134.363 84.4327 134.295 84.886H128.838C128.838 85.3847 128.889 85.8267 128.991 86.212C129.093 86.5973 129.251 86.926 129.467 87.198C129.682 87.4587 129.96 87.6627 130.3 87.81C130.651 87.946 131.076 88.014 131.575 88.014C131.96 88.014 132.345 87.946 132.731 87.81C133.116 87.674 133.405 87.5153 133.598 87.334L134.108 88.32ZM131.184 81.486C130.515 81.486 129.977 81.6617 129.569 82.013C129.172 82.3643 128.934 82.965 128.855 83.815H133.071C133.071 82.9537 132.906 82.353 132.578 82.013C132.249 81.6617 131.784 81.486 131.184 81.486ZM141.959 81.69H139.29V89H137.93V81.69H135.261V80.5H141.959V81.69Z" fill="#562212"/>
<path d="M132.761 53.2589C134.995 53.2589 137.255 53.8552 139.827 55.5145C139.827 55.5145 140.944 53.4922 141.619 52.2737C138.97 50.407 135.905 49.4736 132.632 49.4736C125.514 49.4736 120.734 54.4515 120.734 61.1664C120.734 67.6998 125.488 72.8851 132.709 72.8851C136.242 72.8851 139.333 71.874 141.619 70.0073L139.879 66.8443C138.19 68.1147 135.723 69.0739 133.021 69.0739C128.527 69.0739 125.202 65.7035 125.202 60.9071C125.202 56.8367 127.852 53.2589 132.761 53.2589Z" fill="#562212"/>
<path d="M130.814 14.0581C130.814 15.6396 130.087 16.547 128.866 16.547C127.645 16.547 126.918 15.5878 126.918 14.0581H120.501C120.683 18.7508 123.411 21.9138 128.97 21.9138C134.113 21.9138 137.048 18.673 137.23 14.0581H130.814Z" fill="#562212"/>
<path d="M117.228 45.6881V23.6507H124.631C124.631 23.6507 124.631 33.1657 124.631 33.9175C124.631 34.6694 124.476 35.525 124.476 35.525H124.787L132.866 23.6507H139.957V45.6881H132.554C132.554 45.6881 132.554 36.3287 132.554 35.3176C132.554 34.5657 132.71 33.8657 132.71 33.8657H132.398L124.32 45.6622H117.228V45.6881Z" fill="#562212"/>
<path d="M101.927 23.0809C108.967 23.0809 114.214 28.0328 114.214 34.6959C114.214 41.2812 108.967 46.259 101.927 46.259C94.9655 46.259 89.7183 41.2812 89.7183 34.6959C89.7183 28.0328 94.9655 23.0809 101.927 23.0809ZM101.927 39.4145C104.603 39.4145 106.395 37.3144 106.395 34.7218C106.395 32.0514 104.603 29.9514 101.927 29.9514C99.3035 29.9514 97.4592 32.0255 97.4592 34.7218C97.4592 37.3144 99.3295 39.4145 101.927 39.4145Z" fill="#562212"/>
<path d="M80.8355 23.6507C80.8355 23.6507 74.6532 31.6879 74.3934 31.999C74.0817 32.3879 74.0557 32.5694 74.0557 32.5694H73.744C73.744 32.5694 73.692 32.3619 73.3803 31.999C72.9387 31.4545 66.5226 23.6507 66.5226 23.6507H60.678V45.6881H67.8214C67.8214 45.6881 67.8214 37.4176 67.8214 36.4324C67.8214 35.4472 67.6656 34.825 67.6656 34.825H67.9773L73.718 41.4102H74.0297L79.3548 34.825H79.6666C79.6666 34.825 79.5107 35.4213 79.5107 36.4324C79.5107 37.4435 79.5107 45.6881 79.5107 45.6881H86.6541V23.6507H80.8355Z" fill="#562212"/>
</svg>
