<svg width="100" height="100" viewBox="0 0 100 100" fill="none" xmlns="http://www.w3.org/2000/svg">
<path d="M100 48.3292V51.675C99.9667 51.8583 99.9292 52.0375 99.9083 52.2167C99.7417 53.675 99.6292 55.1375 99.3917 56.5833C98.628 61.2277 96.9635 65.6779 94.4917 69.6833C90.8666 75.7019 85.5973 80.5592 79.3042 83.6833C75.6344 85.5311 71.6686 86.72 67.5875 87.1958C66.6833 87.3042 65.775 87.4 64.8708 87.5H29.7417C29.5625 87.4667 29.3875 87.4167 29.2083 87.4C25.6869 87.185 22.2323 86.3411 19.0083 84.9083C11.9375 81.7625 6.6625 76.6583 3.2125 69.6417C1.68599 66.5397 0.69963 63.2002 0.295833 59.7667L0 57.2583V54.0083C0.0333333 53.8292 0.0833333 53.65 0.0958333 53.4667C0.268724 50.3654 0.916542 47.3089 2.01667 44.4042C5 36.5708 10.2083 30.7542 17.5917 26.9917C21.3862 25.0729 25.5441 23.9794 29.7917 23.7833C31.8838 23.6849 33.9806 23.784 36.0542 24.0792C36.1609 24.0887 36.2685 24.0763 36.3703 24.0426C36.4721 24.0089 36.5659 23.9547 36.6458 23.8833C39.5998 20.7983 43.0647 18.2468 46.8875 16.3417C50.575 14.4864 54.5587 13.2906 58.6583 12.8083C59.6333 12.6958 60.6042 12.6 61.575 12.5H64.575C64.7667 12.5292 64.9667 12.5667 65.1583 12.5875C66.6458 12.7667 68.1375 12.8792 69.6083 13.1292C74.1616 13.912 78.5139 15.5918 82.4125 18.0708C88.402 21.8049 93.2 27.1725 96.2417 33.5417C98.067 37.29 99.2367 41.3233 99.7 45.4667C99.8083 46.4208 99.9 47.375 100 48.3292V48.3292ZM44.0833 26.6625C44.1458 26.7458 44.1625 26.7833 44.1875 26.7958C46.2417 27.825 48.2083 29.0375 50.0625 30.4083C50.1792 30.4917 50.4708 30.4583 50.6125 30.3667C55.7042 27.0875 61.225 25.9542 67.1542 27.025C72.9667 28.0708 77.6958 31.025 81.3083 35.7417C85.4 41.075 86.9625 47.1167 85.8333 53.825C85.075 58.325 83.3 62.3667 80.2917 65.7458C74.7917 71.9125 67.9042 74.4625 59.8 73.3833C54.8125 72.7167 50.5083 70.5292 46.9417 66.8667C42.3667 62.1667 37.7583 57.5 33.1708 52.8125C32.5583 52.1875 31.8792 51.6875 31 51.575C30.2645 51.4756 29.5166 51.6167 28.8678 51.9771C28.2191 52.3376 27.7042 52.898 27.4 53.575C26.8083 54.825 26.8833 56.2417 28.1708 57.525C33.2833 62.6333 38.3542 67.7833 43.4625 72.9C44.3375 73.775 45.275 74.5875 46.2708 75.325C50.0042 78.0792 54.2125 79.6042 58.7708 80.2167C62.3458 80.7 65.8958 80.5917 69.4167 79.7917C76.1333 78.2542 81.7 74.7708 86.0833 69.3875C89.668 65.01 91.9441 59.7095 92.65 54.0958C93.0929 50.825 93.0014 47.504 92.3792 44.2625C91.3625 38.9708 89.1583 34.2292 85.6292 30.1917C78.8875 22.5 70.4083 19.0667 60.3208 19.8292C56.4634 20.1474 52.7152 21.2686 49.3167 23.1208C47.4499 24.1076 45.6965 25.2951 44.0875 26.6625H44.0833ZM41.6167 80.375C41.4772 80.245 41.3383 80.1145 41.2 79.9833C39.1125 77.975 37.0083 75.9833 34.9417 73.9458C34.7762 73.7571 34.5706 73.6078 34.3398 73.509C34.1091 73.4102 33.8591 73.3644 33.6083 73.375C31.5167 73.425 29.4208 73.4333 27.3583 72.9583C17.1042 70.6042 11.15 59.2667 14.9292 49.2917C17.9083 41.4208 26.1625 36.6333 34.3 38.1083C37.9458 38.7708 41.15 40.3417 43.775 43.0958C46.9833 46.4625 50.2833 49.7292 53.525 53.0583C54.2583 53.8167 55.1083 54.1625 56.1292 54.0167C57.4458 53.825 58.5 53.1833 58.975 51.8667C59.4417 50.575 59.2167 49.3458 58.2542 48.35C54.8542 44.85 51.5333 41.2583 47.9958 37.9042C41.1333 31.4 33.0458 29.4625 24.0958 32.2292C12.0625 35.95 5.01667 48.5875 7.76667 61.0583C10.275 72.4208 20.0458 80.3917 31.4792 80.4042H41.0583C41.2167 80.4042 41.375 80.3875 41.6167 80.375" fill="#D41818"/>
</svg>
