<svg width="100" height="76" viewBox="0 0 100 76" fill="none" xmlns="http://www.w3.org/2000/svg">
<path d="M100 36.3292V39.675C99.9667 39.8583 99.9292 40.0375 99.9083 40.2167C99.7417 41.675 99.6292 43.1375 99.3917 44.5833C98.628 49.2277 96.9635 53.6779 94.4917 57.6833C90.8666 63.7019 85.5973 68.5592 79.3042 71.6833C75.6344 73.5311 71.6686 74.7199 67.5875 75.1958C66.6833 75.3042 65.775 75.4 64.8708 75.5H29.7417C29.5625 75.4667 29.3875 75.4167 29.2083 75.4C25.6869 75.185 22.2323 74.3411 19.0083 72.9083C11.9375 69.7625 6.6625 64.6583 3.2125 57.6417C1.68599 54.5397 0.69963 51.2002 0.295833 47.7667L0 45.2583V42.0083C0.0333333 41.8292 0.0833333 41.65 0.0958333 41.4667C0.268724 38.3654 0.916542 35.3089 2.01667 32.4042C5 24.5708 10.2083 18.7542 17.5917 14.9917C21.3862 13.0729 25.5441 11.9794 29.7917 11.7833C31.8838 11.6849 33.9806 11.784 36.0542 12.0792C36.1609 12.0887 36.2685 12.0763 36.3703 12.0426C36.4721 12.0089 36.5659 11.9547 36.6458 11.8833C39.5998 8.79826 43.0647 6.24684 46.8875 4.34167C50.575 2.48637 54.5587 1.29057 58.6583 0.808333C59.6333 0.695833 60.6042 0.6 61.575 0.5H64.575C64.7667 0.529167 64.9667 0.566666 65.1583 0.5875C66.6458 0.766666 68.1375 0.879167 69.6083 1.12917C74.1616 1.91201 78.5139 3.59176 82.4125 6.07083C88.402 9.8049 93.2 15.1725 96.2417 21.5417C98.067 25.29 99.2367 29.3233 99.7 33.4667C99.8083 34.4208 99.9 35.375 100 36.3292ZM44.0833 14.6625C44.1458 14.7458 44.1625 14.7833 44.1875 14.7958C46.2417 15.825 48.2083 17.0375 50.0625 18.4083C50.1792 18.4917 50.4708 18.4583 50.6125 18.3667C55.7042 15.0875 61.225 13.9542 67.1542 15.025C72.9667 16.0708 77.6958 19.025 81.3083 23.7417C85.4 29.075 86.9625 35.1167 85.8333 41.825C85.075 46.325 83.3 50.3667 80.2917 53.7458C74.7917 59.9125 67.9042 62.4625 59.8 61.3833C54.8125 60.7167 50.5083 58.5292 46.9417 54.8667C42.3667 50.1667 37.7583 45.5 33.1708 40.8125C32.5583 40.1875 31.8792 39.6875 31 39.575C30.2645 39.4756 29.5166 39.6167 28.8678 39.9771C28.2191 40.3376 27.7042 40.898 27.4 41.575C26.8083 42.825 26.8833 44.2417 28.1708 45.525C33.2833 50.6333 38.3542 55.7833 43.4625 60.9C44.3375 61.775 45.275 62.5875 46.2708 63.325C50.0042 66.0792 54.2125 67.6042 58.7708 68.2167C62.3458 68.7 65.8958 68.5917 69.4167 67.7917C76.1333 66.2542 81.7 62.7708 86.0833 57.3875C89.668 53.01 91.9441 47.7095 92.65 42.0958C93.0929 38.825 93.0014 35.504 92.3792 32.2625C91.3625 26.9708 89.1583 22.2292 85.6292 18.1917C78.8875 10.5 70.4083 7.06667 60.3208 7.82917C56.4634 8.14744 52.7152 9.26865 49.3167 11.1208C47.4499 12.1076 45.6965 13.2951 44.0875 14.6625H44.0833ZM41.6167 68.375C41.4772 68.245 41.3383 68.1145 41.2 67.9833C39.1125 65.975 37.0083 63.9833 34.9417 61.9458C34.7762 61.7571 34.5706 61.6078 34.3398 61.509C34.1091 61.4102 33.8591 61.3644 33.6083 61.375C31.5167 61.425 29.4208 61.4333 27.3583 60.9583C17.1042 58.6042 11.15 47.2667 14.9292 37.2917C17.9083 29.4208 26.1625 24.6333 34.3 26.1083C37.9458 26.7708 41.15 28.3417 43.775 31.0958C46.9833 34.4625 50.2833 37.7292 53.525 41.0583C54.2583 41.8167 55.1083 42.1625 56.1292 42.0167C57.4458 41.825 58.5 41.1833 58.975 39.8667C59.4417 38.575 59.2167 37.3458 58.2542 36.35C54.8542 32.85 51.5333 29.2583 47.9958 25.9042C41.1333 19.4 33.0458 17.4625 24.0958 20.2292C12.0625 23.95 5.01667 36.5875 7.76667 49.0583C10.275 60.4208 20.0458 68.3917 31.4792 68.4042H41.0583C41.2167 68.4042 41.375 68.3875 41.6167 68.375Z" fill="#D41818"/>
</svg>
