<svg width="15" height="15" viewBox="0 0 15 15" fill="none" xmlns="http://www.w3.org/2000/svg">
<path d="M12.5 0.625H2.5C1.46406 0.625 0.625 1.46406 0.625 2.5V12.5C0.625 13.5359 1.46406 14.375 2.5 14.375H12.5C13.5359 14.375 14.375 13.5359 14.375 12.5V2.5C14.375 1.46406 13.5359 0.625 12.5 0.625ZM13.125 12.5C13.125 12.8453 12.8453 13.125 12.5 13.125H2.5C2.15469 13.125 1.875 12.8453 1.875 12.5V2.5C1.875 2.15469 2.15469 1.875 2.5 1.875H12.5C12.8453 1.875 13.125 2.15469 13.125 2.5V12.5Z" fill="#00BC87"/>
<path d="M10.3727 5.51125C10.1286 5.26719 9.73285 5.26719 9.48895 5.51125L6.83707 8.16297L5.51129 6.83719C5.26723 6.59312 4.87145 6.59312 4.62738 6.83719C4.38332 7.08125 4.38332 7.47703 4.62738 7.72109L6.39488 9.48859C6.63895 9.73266 7.03473 9.73266 7.27879 9.48859L10.3724 6.395C10.6168 6.15109 10.6168 5.75547 10.3727 5.51125Z" fill="#00BC87"/>
</svg>
