<svg width="30" height="30" viewBox="0 0 30 30" fill="none" xmlns="http://www.w3.org/2000/svg">
<g clip-path="url(#clip0)">
<path d="M15 15C15 13.6739 15.5268 12.4021 16.4645 11.4645C17.4021 10.5268 18.6739 10 20 10C21.3261 10 22.5979 10.5268 23.5355 11.4645C24.4732 12.4021 25 13.6739 25 15C25 16.3261 24.4732 17.5979 23.5355 18.5355C22.5979 19.4732 21.3261 20 20 20C18.6739 20 17.4021 19.4732 16.4645 18.5355C15.5268 17.5979 15 16.3261 15 15ZM5 25C5 23.6739 5.52678 22.4021 6.46447 21.4645C7.40215 20.5268 8.67392 20 10 20H15V25C15 26.3261 14.4732 27.5979 13.5355 28.5355C12.5979 29.4732 11.3261 30 10 30C8.67392 30 7.40215 29.4732 6.46447 28.5355C5.52678 27.5979 5 26.3261 5 25Z" fill="white"/>
<path d="M15 0V10H20C21.3261 10 22.5979 9.47322 23.5355 8.53553C24.4732 7.59785 25 6.32608 25 5C25 3.67392 24.4732 2.40215 23.5355 1.46447C22.5979 0.526784 21.3261 0 20 0L15 0ZM5 5C5 6.32608 5.52678 7.59785 6.46447 8.53553C7.40215 9.47322 8.67392 10 10 10H15V0H10C8.67392 0 7.40215 0.526784 6.46447 1.46447C5.52678 2.40215 5 3.67392 5 5V5ZM5 15C5 16.3261 5.52678 17.5979 6.46447 18.5355C7.40215 19.4732 8.67392 20 10 20H15V10H10C8.67392 10 7.40215 10.5268 6.46447 11.4645C5.52678 12.4021 5 13.6739 5 15V15Z" fill="white"/>
</g>
<defs>
<clipPath id="clip0">
<rect width="30" height="30" fill="white"/>
</clipPath>
</defs>
</svg>
