<svg width="30" height="30" viewBox="0 0 30 30" fill="none" xmlns="http://www.w3.org/2000/svg">
<path d="M3.75 16.25H23.2325L16.5275 22.955C16.0394 23.4431 16.0394 24.2347 16.5272 24.7225C17.0153 25.2106 17.8072 25.2106 18.2953 24.7225L27.1338 15.8838C27.1919 15.8256 27.2438 15.7616 27.2894 15.6934C27.3103 15.6619 27.325 15.6278 27.3431 15.595C27.3638 15.5563 27.3875 15.5194 27.4041 15.4784C27.4219 15.4363 27.4319 15.3925 27.4444 15.3488C27.4547 15.3141 27.4681 15.2809 27.4753 15.2453C27.4916 15.1641 27.5 15.0822 27.5 15C27.5 14.9991 27.4997 14.9981 27.4997 14.9972C27.4994 14.9163 27.4913 14.835 27.4753 14.7553C27.4678 14.7178 27.4538 14.6831 27.4428 14.6463C27.4306 14.6047 27.4213 14.5625 27.4044 14.5222C27.3863 14.4788 27.3619 14.4394 27.3394 14.3984C27.3225 14.3678 27.3091 14.3366 27.2897 14.3072C27.2441 14.2381 27.1916 14.1738 27.1331 14.1153L18.295 5.27751C17.8069 4.78938 17.0153 4.78938 16.5272 5.2772C16.0391 5.76532 16.0391 6.55688 16.5272 7.04532L23.2322 13.75H3.75C3.05969 13.75 2.5 14.3097 2.5 15C2.5 15.6903 3.05969 16.25 3.75 16.25Z" fill="white"/>
</svg>
