<svg width="100" height="100" viewBox="0 0 100 100" fill="none" xmlns="http://www.w3.org/2000/svg">
<g clip-path="url(#clip0)">
<rect width="100" height="100" fill="white"/>
<path d="M98.1083 45.5425L54.4458 1.88413C51.9292 -0.628369 47.8542 -0.628369 45.3292 1.88413L36.2833 10.9466L47.7833 22.4466C50.4708 21.5508 53.5292 22.155 55.6542 24.2841C57.8042 26.43 58.3958 29.5258 57.4792 32.2008L68.5542 43.2841C71.2417 42.355 74.3333 42.9591 76.4708 45.0966C79.475 48.0966 79.475 52.9466 76.4708 55.9466C73.475 58.9425 68.6333 58.9425 65.6375 55.9466C63.3917 53.6925 62.8292 50.3758 63.9542 47.63L53.5833 37.3133V64.5008C54.3167 64.8591 55.0083 65.3466 55.6167 65.9508C58.5875 68.955 58.5875 73.7966 55.6167 76.7841C52.6208 79.7883 47.7458 79.7883 44.7458 76.7841C41.75 73.7883 41.75 68.955 44.7458 65.9591C45.5042 65.2091 46.3583 64.6425 47.2667 64.2675V36.8133C46.3625 36.4341 45.5 35.8883 44.7667 35.1425C42.4958 32.8716 41.95 29.5508 43.1167 26.7716L31.8167 15.4175L1.875 45.3383C-0.625 47.8591 -0.625 51.9383 1.875 54.4591L45.5417 98.1133C48.0583 100.63 52.1333 100.63 54.65 98.1133L98.1083 54.655C100.629 52.1425 100.629 48.0633 98.1083 45.5425" fill="#F03C2E"/>
</g>
<defs>
<clipPath id="clip0">
<rect width="100" height="100" fill="white"/>
</clipPath>
</defs>
</svg>
