<svg width="101" height="100" viewBox="0 0 101 100" fill="none" xmlns="http://www.w3.org/2000/svg">
<g clip-path="url(#clip0)">
<path d="M7.3572 24.4749C-1.48863 37.1833 -0.392801 53.7124 6.3697 67.2083C6.52387 67.5374 6.6947 67.8499 6.86137 68.1624C6.9572 68.3791 7.06553 68.5791 7.1822 68.7833C7.23637 68.8999 7.31137 69.0208 7.37803 69.1291C7.48637 69.3458 7.60303 69.5541 7.71553 69.7624L8.3697 70.8666C8.49053 71.0708 8.6072 71.2708 8.7447 71.4749C8.97387 71.8666 9.2447 72.2541 9.4822 72.6458C9.59053 72.8083 9.69053 72.9708 9.81137 73.1333C10.2155 73.768 10.6464 74.3852 11.103 74.9833C11.428 75.4291 11.753 75.8624 12.103 76.2958C12.2155 76.4541 12.3405 76.6124 12.4572 76.7708L13.378 77.8916C13.4905 78.0208 13.603 78.1708 13.7239 78.3041C14.1322 78.7958 14.5655 79.2749 14.9989 79.7583C14.9989 79.7666 15.0114 79.7749 15.0197 79.7874C15.5474 80.4547 16.1391 81.0687 16.7864 81.6208C17.1197 81.9624 17.453 82.3041 17.8072 82.6374L18.228 83.0416C18.6905 83.4749 19.153 83.9083 19.6405 84.3249C19.6489 84.3249 19.653 84.3333 19.6614 84.3374L19.8989 84.5458C20.3239 84.9166 20.753 85.2874 21.1905 85.6291L21.7114 86.0666C22.0655 86.3499 22.4322 86.6208 22.7947 86.8999L23.3614 87.3333C23.7489 87.6249 24.1614 87.9124 24.5572 88.1958C24.703 88.2999 24.8489 88.4041 24.9989 88.4999L25.1197 88.5958L26.2905 89.3666L26.7905 89.6999C27.403 90.0916 28.0114 90.4624 28.6155 90.8291C28.7905 90.9166 28.9655 91.0124 29.128 91.1124C29.578 91.3708 30.0447 91.6333 30.4989 91.8749C30.7489 92.0166 31.0072 92.1374 31.2655 92.2666C31.578 92.4416 31.903 92.6124 32.2364 92.7874C32.317 92.812 32.3951 92.8441 32.4697 92.8833C32.6072 92.9458 32.7364 93.0124 32.8697 93.0791C33.3697 93.3291 33.8905 93.5666 34.4322 93.8041C34.5322 93.8458 34.6405 93.8874 34.7489 93.9458C35.3489 94.2083 35.9489 94.4583 36.5697 94.7041C36.7114 94.7458 36.8614 94.8166 37.0072 94.8708C37.5697 95.0833 38.1489 95.2999 38.7197 95.5041L38.928 95.5791C39.5655 95.7958 40.1947 96.0041 40.8405 96.2041C40.9905 96.2458 41.1447 96.2999 41.303 96.3416C41.9655 96.5416 42.6072 96.7791 43.2739 96.9083C86.0239 104.7 98.4489 71.2041 98.4489 71.2041C88.0114 84.7958 69.4905 88.3791 51.9489 84.3916C51.2989 84.2416 50.6489 84.0333 49.9947 83.8416C49.2018 83.6076 48.4141 83.3561 47.6322 83.0874L47.3739 82.9874C46.8072 82.7958 46.2614 82.5833 45.7072 82.3708C45.5565 82.3083 45.4037 82.2513 45.2489 82.1999C44.6364 81.9541 44.0405 81.6999 43.4489 81.4374C43.3197 81.3958 43.2114 81.3374 43.0822 81.2874C42.5788 81.0556 42.0774 80.8195 41.578 80.5791C41.4239 80.5124 41.2864 80.4416 41.1364 80.3624C40.7447 80.1791 40.353 79.9708 39.9697 79.7708C39.7065 79.6444 39.4466 79.511 39.1905 79.3708C38.7197 79.1208 38.2489 78.8499 37.778 78.5916C37.6364 78.4916 37.4739 78.4083 37.3114 78.3166C36.697 77.9528 36.0886 77.5792 35.4864 77.1958C35.3188 77.0916 35.1548 76.9818 34.9947 76.8666C34.5526 76.5941 34.119 76.3078 33.6947 76.0083C33.5489 75.9124 33.4155 75.8083 33.2655 75.7041C32.8516 75.4174 32.4432 75.1229 32.0405 74.8208C31.8655 74.6791 31.678 74.5458 31.4905 74.4041C31.1239 74.1166 30.753 73.8416 30.3864 73.5374L29.8947 73.1458C29.4228 72.7651 28.9588 72.3747 28.503 71.9749C28.4556 71.9286 28.404 71.8868 28.3489 71.8499L26.903 70.5333L26.4864 70.1416C26.1447 69.7958 25.7947 69.4624 25.4447 69.1208L25.0405 68.7041C24.6004 68.2661 24.1711 67.8174 23.753 67.3583L23.6905 67.2916C23.2489 66.8083 22.8197 66.3166 22.3864 65.8166C22.2739 65.6874 22.1697 65.5499 22.053 65.4124L21.1114 64.2583C20.6309 63.6423 20.1587 63.02 19.6947 62.3916C9.96553 49.1083 6.4447 30.7749 14.2322 15.7374" fill="#0865A6"/>
<path d="M34.8048 13.7708C28.3923 22.975 28.7548 35.2833 33.7465 45.0167C34.5714 46.655 35.5142 48.2314 36.5673 49.7333C37.5257 51.1083 38.584 52.7333 39.8673 53.8417C40.3132 54.35 40.7965 54.8417 41.3007 55.3375L41.6757 55.7125C42.1507 56.1708 42.6382 56.6208 43.134 57.0667L43.1965 57.1208C43.7585 57.6114 44.3337 58.0866 44.9215 58.5458C45.0632 58.6417 45.184 58.7542 45.3215 58.85C45.9048 59.3 46.4923 59.7333 47.1007 60.1625L47.1632 60.2C47.4215 60.3875 47.6965 60.5583 47.9882 60.7417C48.1048 60.8167 48.2382 60.9167 48.3632 60.9917C48.8048 61.275 49.2382 61.5417 49.684 61.8125C49.7548 61.8417 49.8173 61.8792 49.884 61.9083C50.259 62.1375 50.6673 62.3583 51.059 62.5625C51.1965 62.6458 51.3298 62.7083 51.4715 62.7875C51.7507 62.925 52.0257 63.0708 52.2923 63.2125L52.4257 63.2708C52.9882 63.5458 53.5632 63.8042 54.1257 64.0625C54.2673 64.1167 54.3882 64.1625 54.509 64.2208C54.9715 64.4208 55.4423 64.6125 55.9048 64.7917C56.1132 64.8625 56.309 64.9458 56.5048 65.0083C56.9298 65.1667 57.3757 65.3125 57.7965 65.4583L58.3798 65.6458C58.9882 65.8333 59.6048 66.0792 60.2465 66.1833C93.2465 71.6542 100.888 46.2375 100.888 46.2375C94.009 56.1375 80.6965 60.8542 66.509 57.1708C65.8817 57.0084 65.2592 56.8277 64.6423 56.6292C64.4423 56.575 64.2673 56.5125 64.0757 56.4542C63.6423 56.3042 63.1965 56.1583 62.7757 56L62.1757 55.775C61.709 55.5875 61.234 55.4125 60.7798 55.2125C60.6382 55.15 60.509 55.1083 60.4007 55.0458C59.8173 54.7833 59.2298 54.525 58.6632 54.2458L57.8048 53.8L57.309 53.55C56.9257 53.35 56.5715 53.1417 56.2048 52.925C56.1161 52.8827 56.0298 52.8354 55.9465 52.7833C55.5048 52.5083 55.0465 52.2417 54.6257 51.9583C54.484 51.8792 54.3548 51.7833 54.2215 51.7L53.3548 51.1333C52.7548 50.7167 52.1673 50.2667 51.5757 49.8333C51.4423 49.7125 51.3132 49.6125 51.184 49.5042C44.9465 44.6 40.0257 37.8958 37.6923 30.3042C35.234 22.4125 35.7757 13.5625 40.0215 6.37915" fill="#0865A6"/>
<path d="M57.8826 5.76662C54.0993 11.3166 53.7368 18.2083 56.341 24.3291C59.1076 30.8291 64.766 35.9333 71.3576 38.35C71.6285 38.4541 71.891 38.5416 72.1701 38.6416L72.5368 38.7541C72.9201 38.875 73.3076 39.0166 73.7035 39.1041C91.9368 42.6208 96.8702 29.7416 98.1993 27.85C93.8577 34.0833 86.5785 35.5791 77.6493 33.4083C76.9208 33.2262 76.203 33.0037 75.4993 32.7416C74.6244 32.4342 73.7663 32.0809 72.9285 31.6833C71.3429 30.9147 69.8358 29.9937 68.4285 28.9333C60.4285 22.875 55.4743 11.3083 60.691 1.88745" fill="#0865A6"/>
</g>
<defs>
<clipPath id="clip0">
<rect width="100" height="100" fill="white" transform="translate(0.966797)"/>
</clipPath>
</defs>
</svg>
