<svg width="100" height="100" viewBox="0 0 100 100" fill="none" xmlns="http://www.w3.org/2000/svg">
<path d="M6.39089 24.4749C-2.45494 37.1833 -1.35911 53.7124 5.40339 67.2083C5.55756 67.5374 5.72839 67.8499 5.89506 68.1624C5.99089 68.3791 6.09922 68.5791 6.21589 68.7833C6.27006 68.8999 6.34506 69.0208 6.41172 69.1291C6.52006 69.3458 6.63672 69.5541 6.74922 69.7624L7.40339 70.8666C7.52422 71.0708 7.64089 71.2708 7.77839 71.4749C8.00756 71.8666 8.27839 72.2541 8.51589 72.6458C8.62422 72.8083 8.72422 72.9708 8.84506 73.1333C9.24915 73.768 9.6801 74.3852 10.1367 74.9833C10.4617 75.4291 10.7867 75.8624 11.1367 76.2958C11.2492 76.4541 11.3742 76.6124 11.4909 76.7708L12.4117 77.8916C12.5242 78.0208 12.6367 78.1708 12.7576 78.3041C13.1659 78.7958 13.5992 79.2749 14.0326 79.7583C14.0326 79.7666 14.0451 79.7749 14.0534 79.7874C14.5811 80.4547 15.1728 81.0687 15.8201 81.6208C16.1534 81.9624 16.4867 82.3041 16.8409 82.6374L17.2617 83.0416C17.7242 83.4749 18.1867 83.9083 18.6742 84.3249C18.6826 84.3249 18.6867 84.3333 18.6951 84.3374L18.9326 84.5458C19.3576 84.9166 19.7867 85.2874 20.2242 85.6291L20.7451 86.0666C21.0992 86.3499 21.4659 86.6208 21.8284 86.8999L22.3951 87.3333C22.7826 87.6249 23.1951 87.9124 23.5909 88.1958C23.7367 88.2999 23.8826 88.4041 24.0326 88.4999L24.1534 88.5958L25.3242 89.3666L25.8242 89.6999C26.4367 90.0916 27.0451 90.4624 27.6492 90.8291C27.8242 90.9166 27.9992 91.0124 28.1617 91.1124C28.6117 91.3708 29.0784 91.6333 29.5326 91.8749C29.7826 92.0166 30.0409 92.1374 30.2992 92.2666C30.6117 92.4416 30.9367 92.6124 31.2701 92.7874C31.3507 92.812 31.4288 92.8441 31.5034 92.8833C31.6409 92.9458 31.7701 93.0124 31.9034 93.0791C32.4034 93.3291 32.9242 93.5666 33.4659 93.8041C33.5659 93.8458 33.6742 93.8874 33.7826 93.9458C34.3826 94.2083 34.9826 94.4583 35.6034 94.7041C35.7451 94.7458 35.8951 94.8166 36.0409 94.8708C36.6034 95.0833 37.1826 95.2999 37.7534 95.5041L37.9617 95.5791C38.5992 95.7958 39.2284 96.0041 39.8742 96.2041C40.0242 96.2458 40.1784 96.2999 40.3367 96.3416C40.9992 96.5416 41.6409 96.7791 42.3076 96.9083C85.0576 104.7 97.4826 71.2041 97.4826 71.2041C87.0451 84.7958 68.5242 88.3791 50.9826 84.3916C50.3326 84.2416 49.6826 84.0333 49.0284 83.8416C48.2355 83.6076 47.4478 83.3561 46.6659 83.0874L46.4076 82.9874C45.8409 82.7958 45.2951 82.5833 44.7409 82.3708C44.5902 82.3083 44.4374 82.2513 44.2826 82.1999C43.6701 81.9541 43.0742 81.6999 42.4826 81.4374C42.3534 81.3958 42.2451 81.3374 42.1159 81.2874C41.6125 81.0556 41.1111 80.8195 40.6117 80.5791C40.4576 80.5124 40.3201 80.4416 40.1701 80.3624C39.7784 80.1791 39.3867 79.9708 39.0034 79.7708C38.7402 79.6444 38.4803 79.511 38.2242 79.3708C37.7534 79.1208 37.2826 78.8499 36.8117 78.5916C36.6701 78.4916 36.5076 78.4083 36.3451 78.3166C35.7307 77.9528 35.1223 77.5792 34.5201 77.1958C34.3525 77.0916 34.1885 76.9818 34.0284 76.8666C33.5863 76.5941 33.1527 76.3078 32.7284 76.0083C32.5826 75.9124 32.4492 75.8083 32.2992 75.7041C31.8853 75.4174 31.4769 75.1229 31.0742 74.8208C30.8992 74.6791 30.7117 74.5458 30.5242 74.4041C30.1576 74.1166 29.7867 73.8416 29.4201 73.5374L28.9284 73.1458C28.4565 72.7651 27.9925 72.3747 27.5367 71.9749C27.4893 71.9286 27.4377 71.8867 27.3826 71.8499L25.9367 70.5333L25.5201 70.1416C25.1784 69.7958 24.8284 69.4624 24.4784 69.1208L24.0742 68.7041C23.6341 68.2661 23.2048 67.8174 22.7867 67.3583L22.7242 67.2916C22.2826 66.8083 21.8534 66.3166 21.4201 65.8166C21.3076 65.6874 21.2034 65.5499 21.0867 65.4124L20.1451 64.2583C19.6646 63.6423 19.1924 63.02 18.7284 62.3916C8.99922 49.1083 5.47839 30.7749 13.2659 15.7374" fill="#0865A6"/>
<path d="M33.838 13.7708C27.4255 22.975 27.788 35.2833 32.7797 45.0167C33.6047 46.655 34.5474 48.2314 35.6005 49.7333C36.5589 51.1083 37.6172 52.7333 38.9005 53.8417C39.3464 54.35 39.8297 54.8417 40.3339 55.3375L40.7089 55.7125C41.1839 56.1708 41.6714 56.6208 42.1672 57.0667L42.2297 57.1208C42.7917 57.6114 43.3669 58.0866 43.9547 58.5458C44.0964 58.6417 44.2172 58.7542 44.3547 58.85C44.938 59.3 45.5255 59.7333 46.1339 60.1625L46.1964 60.2C46.4547 60.3875 46.7297 60.5583 47.0214 60.7417C47.138 60.8167 47.2714 60.9167 47.3964 60.9917C47.838 61.275 48.2714 61.5417 48.7172 61.8125C48.788 61.8417 48.8505 61.8792 48.9172 61.9083C49.2922 62.1375 49.7005 62.3583 50.0922 62.5625C50.2297 62.6458 50.363 62.7083 50.5047 62.7875C50.7839 62.925 51.0589 63.0708 51.3255 63.2125L51.4589 63.2708C52.0214 63.5458 52.5964 63.8042 53.1589 64.0625C53.3005 64.1167 53.4214 64.1625 53.5422 64.2208C54.0047 64.4208 54.4755 64.6125 54.938 64.7917C55.1464 64.8625 55.3422 64.9458 55.538 65.0083C55.963 65.1667 56.4089 65.3125 56.8297 65.4583L57.413 65.6458C58.0214 65.8333 58.638 66.0792 59.2797 66.1833C92.2797 71.6542 99.9214 46.2375 99.9214 46.2375C93.0422 56.1375 79.7297 60.8542 65.5422 57.1708C64.9149 57.0084 64.2924 56.8277 63.6755 56.6292C63.4755 56.575 63.3005 56.5125 63.1089 56.4542C62.6755 56.3042 62.2297 56.1583 61.8089 56L61.2089 55.775C60.7422 55.5875 60.2672 55.4125 59.813 55.2125C59.6714 55.15 59.5422 55.1083 59.4339 55.0458C58.8505 54.7833 58.263 54.525 57.6964 54.2458L56.838 53.8L56.3422 53.55C55.9589 53.35 55.6047 53.1417 55.238 52.925C55.1493 52.8827 55.063 52.8354 54.9797 52.7833C54.538 52.5083 54.0797 52.2417 53.6589 51.9583C53.5172 51.8792 53.388 51.7833 53.2547 51.7L52.388 51.1333C51.788 50.7167 51.2005 50.2667 50.6089 49.8333C50.4755 49.7125 50.3464 49.6125 50.2172 49.5042C43.9797 44.6 39.0589 37.8958 36.7255 30.3042C34.2672 22.4125 34.8089 13.5625 39.0547 6.37915" fill="#0865A6"/>
<path d="M56.9158 5.76674C53.1325 11.3167 52.77 18.2084 55.3742 24.3292C58.1408 30.8292 63.7992 35.9334 70.3908 38.3501C70.6617 38.4542 70.9242 38.5417 71.2033 38.6417L71.57 38.7542C71.9533 38.8751 72.3408 39.0167 72.7367 39.1042C90.97 42.6209 95.9034 29.7417 97.2325 27.8501C92.8909 34.0834 85.6117 35.5792 76.6825 33.4084C75.954 33.2263 75.2362 33.0038 74.5325 32.7417C73.6576 32.4343 72.7995 32.081 71.9617 31.6834C70.3761 30.9148 68.869 29.9938 67.4617 28.9334C59.4617 22.8751 54.5075 11.3084 59.7242 1.88757" fill="#0865A6"/>
</svg>
