<svg width="100" height="100" viewBox="0 0 100 100" fill="none" xmlns="http://www.w3.org/2000/svg">
<g clip-path="url(#clip0)">
<rect width="100" height="100" fill="white"/>
<path d="M-0.197754 100H99.8023V0H-0.197754V100Z" fill="#1E416F"/>
<path opacity="0.102" d="M80.4663 46.875H21.4819L21.6772 58.9844L51.5601 100H99.8023V68.9453L80.4663 46.875Z" fill="#010101"/>
<path d="M26.8598 60.9176C24.8996 60.9176 23.4738 60.5744 22.5828 59.8879C21.6918 59.2018 21.2463 57.9787 21.2463 56.2188V53.128C21.2463 51.5491 20.6227 50.7598 19.375 50.7598V48.3539C20.6227 48.3539 21.2463 47.5104 21.2463 45.8227V42.8696C21.2463 41.0512 21.6869 39.7731 22.5682 39.0356C23.4494 38.2973 24.8801 37.9283 26.86 37.9283V40.3344C25.4344 40.3344 24.7215 41.1071 24.7215 42.6526V45.493C24.7215 47.6256 24.0088 48.9721 22.583 49.5321V49.5819C24.0088 50.1166 24.7215 51.4381 24.7215 53.5457V56.1897C24.7215 57.0334 24.8887 57.6313 25.2229 57.9838C25.5569 58.336 26.1028 58.5117 26.86 58.5117V60.9176" fill="white"/>
<path d="M33.2753 51.9919C33.2753 52.5513 33.4146 52.9759 33.6931 53.2656C33.9714 53.5552 34.3447 53.7003 34.8123 53.7003C35.0464 53.7003 35.2802 53.6789 35.514 53.6355C35.748 53.5921 35.9818 53.5486 36.2156 53.5041V56.4568C35.7199 56.5878 35.1953 56.6957 34.6412 56.7804C34.0871 56.8656 33.5105 56.9078 32.9119 56.9078C32.363 56.9078 31.8642 56.8165 31.4144 56.6343C30.9646 56.4521 30.581 56.1896 30.2634 55.8472C29.946 55.5044 29.7003 55.091 29.5263 54.6066C29.3523 54.122 29.2654 53.5765 29.2654 52.9693V36.8591H33.2751V51.9919" fill="white"/>
<path d="M46.1066 48.6212C46.1066 46.8392 45.3449 45.9482 43.8221 45.9482C43.173 45.9482 42.6113 46.2034 42.1367 46.7144C41.6621 47.2253 41.3729 47.861 41.2699 48.6212H46.1066ZM49.849 51.0272H41.2949C41.4342 52.9872 42.6467 53.9677 44.9328 53.9677C46.3922 53.9677 47.6744 53.5892 48.7799 52.8315V55.8892C47.5574 56.5684 45.9703 56.9081 44.0182 56.9081C41.8854 56.9081 40.2299 56.3151 39.052 55.129C37.8742 53.9427 37.2852 52.2886 37.2852 50.1669C37.2852 47.9644 37.9176 46.2204 39.1814 44.9355C40.4459 43.6503 41.9994 43.0079 43.843 43.0079C45.7559 43.0079 47.2352 43.5751 48.2807 44.7097C49.3262 45.8444 49.8492 47.3835 49.8492 49.3273V51.0272H49.849Z" fill="white"/>
<path d="M51.4526 56.1729V52.5639C52.1347 53.0374 52.8151 53.3895 53.4931 53.6208C54.171 53.8518 54.8122 53.9673 55.4167 53.9673C56.1517 53.9673 56.7313 53.8811 57.1562 53.7085C57.581 53.5358 57.7931 53.2741 57.7931 52.9229C57.7931 52.6643 57.697 52.4483 57.5048 52.2759C57.3126 52.1032 57.0655 51.9522 56.7634 51.8227C56.4612 51.6932 56.1306 51.5768 55.7714 51.4741C55.4122 51.371 55.0671 51.2542 54.7354 51.1229C54.2011 50.9253 53.7304 50.712 53.3235 50.4817C52.9171 50.252 52.5759 49.9864 52.3005 49.6843C52.0247 49.3821 51.8146 49.0327 51.6698 48.6356C51.5251 48.2391 51.4526 47.7688 51.4526 47.226C51.4526 46.4854 51.6194 45.8471 51.9517 45.311C52.2847 44.7749 52.7272 44.337 53.28 43.9975C53.8329 43.6575 54.4663 43.4077 55.1802 43.2477C55.8948 43.0876 56.6374 43.0077 57.4087 43.0077C58.0101 43.0077 58.6216 43.0542 59.2423 43.1473C59.8634 43.2407 60.4745 43.3764 61.0761 43.5548V46.8169C60.5358 46.5272 59.9569 46.31 59.3386 46.1653C58.7206 46.0204 58.1138 45.9481 57.5175 45.9481C57.2394 45.9481 56.9763 45.9682 56.7282 46.0087C56.4804 46.0491 56.2616 46.1081 56.0726 46.1858C55.8833 46.2641 55.7345 46.3643 55.6259 46.4868C55.5171 46.6096 55.4628 46.7485 55.4628 46.9046C55.4628 47.1468 55.5429 47.3542 55.7028 47.527C55.863 47.6997 56.0714 47.8487 56.3272 47.9739C56.5835 48.0993 56.8687 48.2114 57.1833 48.31C57.498 48.4091 57.8101 48.5098 58.1192 48.613C58.6786 48.8024 59.1851 49.0093 59.6374 49.2333C60.0897 49.4575 60.4776 49.7206 60.8007 50.0227C61.1235 50.3247 61.3714 50.6794 61.544 51.0858C61.7167 51.4921 61.8028 51.9755 61.8028 52.5354C61.8028 53.3206 61.6296 53.9907 61.2829 54.5462C60.9362 55.102 60.4757 55.5544 59.9005 55.9038C59.3253 56.2532 58.663 56.5081 57.9122 56.6678C57.1616 56.828 56.3827 56.9081 55.5753 56.9081C54.0907 56.9079 52.7167 56.663 51.4526 56.1729Z" fill="white"/>
<path d="M63.2153 56.1729V52.5639C63.8976 53.0374 64.578 53.3895 65.2556 53.6208C65.9339 53.8518 66.5749 53.9673 67.1792 53.9673C67.9142 53.9673 68.4944 53.8811 68.919 53.7085C69.3433 53.5358 69.556 53.2741 69.556 52.9229C69.556 52.6643 69.4599 52.4483 69.2675 52.2759C69.0751 52.1034 68.8286 51.9522 68.5265 51.8227C68.2243 51.6932 67.8933 51.5768 67.5341 51.4741C67.1749 51.371 66.8298 51.2542 66.4983 51.1229C65.9638 50.9253 65.4931 50.712 65.0864 50.4817C64.6802 50.252 64.3388 49.9864 64.0632 49.6843C63.7878 49.3821 63.5774 49.0327 63.4327 48.6356C63.2878 48.2391 63.2153 47.7688 63.2153 47.226C63.2153 46.4854 63.3817 45.8471 63.7146 45.311C64.0474 44.7749 64.4899 44.337 65.0429 43.9975C65.5958 43.6575 66.2292 43.4077 66.9431 43.2477C67.6577 43.0876 68.4003 43.0077 69.1714 43.0077C69.7731 43.0077 70.3845 43.0542 71.005 43.1473C71.6261 43.2407 72.2376 43.3764 72.8388 43.5548V46.8169C72.2985 46.5272 71.7198 46.31 71.1013 46.1653C70.4833 46.0204 69.8761 45.9481 69.2806 45.9481C69.0022 45.9481 68.739 45.9682 68.4911 46.0087C68.2433 46.0491 68.0247 46.1081 67.8356 46.1858C67.6458 46.2641 67.497 46.3643 67.3886 46.4868C67.2796 46.6096 67.2257 46.7485 67.2257 46.9046C67.2257 47.1468 67.3056 47.3542 67.4657 47.527C67.6259 47.6997 67.8341 47.8487 68.0903 47.9739C68.3462 48.0993 68.6315 48.2114 68.9464 48.31C69.2606 48.4091 69.573 48.5098 69.8821 48.613C70.4417 48.8024 70.9478 49.0093 71.4003 49.2333C71.8524 49.4575 72.2401 49.7206 72.5636 50.0227C72.8864 50.3247 73.1343 50.6794 73.3067 51.0858C73.4798 51.4921 73.5655 51.9755 73.5655 52.5354C73.5655 53.3206 73.3921 53.9907 73.0458 54.5462C72.6989 55.102 72.238 55.5544 71.6634 55.9038C71.0882 56.2532 70.4253 56.5081 69.6751 56.6678C68.9243 56.828 68.1456 56.9081 67.338 56.9081C65.8538 56.9079 64.4798 56.663 63.2153 56.1729Z" fill="white"/>
<path d="M82.4615 50.7598C81.2137 50.7598 80.5902 51.5617 80.5902 53.1656V56.1395C80.5902 57.9522 80.1707 59.202 79.3309 59.8879C78.4912 60.5746 77.1291 60.9176 75.2441 60.9176V58.5115C75.9928 58.5115 76.5365 58.3375 76.8748 57.9897C77.2129 57.6416 77.3824 57.05 77.3824 56.2147V53.466C77.3824 51.4111 78.0061 50.1262 79.2537 49.6109V49.5568C78.0061 48.9973 77.3824 47.6062 77.3824 45.3844V42.6523C77.3824 41.1068 76.6695 40.3342 75.2443 40.3342V37.9281C77.1211 37.9281 78.4811 38.297 79.325 39.0353C80.1688 39.7728 80.5904 41.0332 80.5904 42.8152V45.8517C80.5904 47.5195 81.2139 48.3537 82.4617 48.3537V50.7598" fill="white"/>
</g>
<defs>
<clipPath id="clip0">
<rect width="100" height="100" fill="white"/>
</clipPath>
</defs>
</svg>
