<svg width="30" height="30" viewBox="0 0 30 30" fill="none" xmlns="http://www.w3.org/2000/svg">
<path d="M26.7188 7.96875V5.625H24.375V3.28125H17.3438V5.625H15H12.6562V3.28125H5.625V5.625H3.28125V7.96875H0.9375V15H3.28125V17.3438H5.625V19.6875H7.96875V22.0312H10.3125V24.375H12.6562V26.7188H15L29.0625 12.6562V7.96875H26.7188Z" fill="#FF5050"/>
<path d="M7.96875 7.96875H5.625V10.3125H7.96875V7.96875Z" fill="white"/>
<path d="M17.3438 24.375H15V26.7188H17.3438V24.375Z" fill="#9B0270"/>
<path d="M19.6875 22.0312H17.3438V24.375H19.6875V22.0312Z" fill="#9B0270"/>
<path d="M22.0312 19.6875H19.6875V22.0312H22.0312V19.6875Z" fill="#9B0270"/>
<path d="M24.375 17.3438H22.0312V19.6875H24.375V17.3438Z" fill="#9B0270"/>
<path d="M26.7188 15H24.375V17.3438H26.7188V15Z" fill="#9B0270"/>
<path d="M29.0625 12.6562H26.7188V15H29.0625V12.6562Z" fill="#9B0270"/>
</svg>
